<svg xmlns="http://www.w3.org/2000/svg" width="132" height="41" fill="none" viewBox="0 0 132 41">
  <path fill="#FF385C" d="M38.01 29.067c-.207-.5-.4-1.025-.607-1.473l-.955-2.138-.039-.038c-2.839-6.146-5.871-12.395-9.084-18.54l-.13-.257c-.322-.601-.645-1.267-.98-1.882-.413-.73-.813-1.51-1.471-2.253A6.832 6.832 0 0 0 22.38.653a6.884 6.884 0 0 0-5.854 0 6.832 6.832 0 0 0-2.364 1.833c-.606.742-1.058 1.523-1.47 2.253a38.17 38.17 0 0 1-.981 1.92l-.13.257c-3.16 6.146-6.245 12.394-9.084 18.54l-.077.077c-.284.666-.62 1.357-.942 2.1-.207.448-.413.934-.62 1.472a8.644 8.644 0 0 0 1.249 8.538 8.768 8.768 0 0 0 3.583 2.698 8.838 8.838 0 0 0 4.46.582 10.87 10.87 0 0 0 4.103-1.408c1.677-.935 3.29-2.292 5.097-4.251 1.806 1.959 3.458 3.316 5.097 4.264A10.877 10.877 0 0 0 29.634 41a8.802 8.802 0 0 0 5.764-2.114 8.675 8.675 0 0 0 2.947-5.35 7.55 7.55 0 0 0-.336-4.482v.013Zm-18.531 2.125c-2.22-2.817-3.665-5.403-4.155-7.618a6.607 6.607 0 0 1-.13-2.51 3.964 3.964 0 0 1 .672-1.715c.774-1.114 2.129-1.806 3.613-1.806a4.285 4.285 0 0 1 2.034.444c.63.313 1.173.777 1.579 1.349.335.512.58 1.075.658 1.728.13.743.078 1.6-.129 2.51-.49 2.176-1.935 4.788-4.142 7.618Zm16.44 1.895a6.07 6.07 0 0 1-1.226 2.896 6.138 6.138 0 0 1-2.517 1.906c-.98.41-2.064.524-3.122.41-1.033-.129-2.065-.462-3.123-1.076a20.142 20.142 0 0 1-4.684-3.97c2.71-3.328 4.348-6.363 4.968-9.065a9.963 9.963 0 0 0 .206-3.495 7.047 7.047 0 0 0-1.11-2.817 6.901 6.901 0 0 0-2.53-2.177 6.96 6.96 0 0 0-3.263-.742c-2.388 0-4.517 1.1-5.807 2.906a6.601 6.601 0 0 0-1.097 2.83 8.366 8.366 0 0 0 .206 3.495c.62 2.702 2.297 5.775 4.968 9.091a18.454 18.454 0 0 1-4.684 3.995c-1.07.615-2.09.935-3.123 1.063a6.177 6.177 0 0 1-4.512-1.205 6.085 6.085 0 0 1-2.352-4.006c-.13-1.025-.04-2.05.374-3.201.129-.41.322-.82.529-1.306.284-.666.62-1.358.942-2.05l.051-.089a417.49 417.49 0 0 1 8.995-18.45l.129-.256c.322-.615.645-1.268.98-1.882.336-.653.697-1.28 1.162-1.793a4.28 4.28 0 0 1 1.472-1.122 4.312 4.312 0 0 1 5.096 1.122c.451.512.826 1.14 1.161 1.793.323.614.645 1.28.98 1.882l.13.256a505.704 505.704 0 0 1 9.033 18.45l.038.039c.336.666.62 1.408.943 2.048.206.5.412.897.541 1.32.246 1.151.375 2.176.246 3.2ZM53.88 30.91a6.52 6.52 0 0 1-2.818-.594 6.47 6.47 0 0 1-2.279-1.749 8.347 8.347 0 0 1-2.065-5.736 8.87 8.87 0 0 1 2.142-5.864 6.834 6.834 0 0 1 2.367-1.77 6.876 6.876 0 0 1 2.898-.611 5.584 5.584 0 0 1 2.708.616 5.534 5.534 0 0 1 2.067 1.842l.129-2.01h3.768V30.5h-3.781l-.13-2.254a5.815 5.815 0 0 1-2.154 1.977 5.869 5.869 0 0 1-2.852.686Zm.98-3.687c.75 0 1.407-.205 2.027-.576a4.817 4.817 0 0 0 1.393-1.6c.323-.654.49-1.435.49-2.305a4.35 4.35 0 0 0-.43-2.195 4.388 4.388 0 0 0-1.466-1.698 3.829 3.829 0 0 0-4.026 0 4.817 4.817 0 0 0-1.394 1.6 5.103 5.103 0 0 0-.49 2.305 4.35 4.35 0 0 0 .43 2.195 4.39 4.39 0 0 0 1.467 1.698 3.753 3.753 0 0 0 2 .576ZM69.25 10.86c0 .448-.078.857-.284 1.19-.207.32-.49.615-.865.82a2.422 2.422 0 0 1-1.187.281c-.413 0-.826-.076-1.2-.281a2.367 2.367 0 0 1-.864-.82 2.317 2.317 0 0 1-.284-1.19c0-.461.09-.871.284-1.191.206-.384.503-.615.864-.82a2.449 2.449 0 0 1 1.2-.294 2.386 2.386 0 0 1 2.065 1.101c.188.373.28.786.27 1.204Zm-4.388 19.59V15.008h4.104v15.467H64.85l.012-.026Zm15.072-11.396v.051c-.193-.09-.451-.128-.645-.166-.258-.051-.464-.051-.71-.051-1.148 0-2.013.332-2.58 1.024-.62.704-.904 1.69-.904 2.958v7.592H70.98V14.995h3.78l.13 2.343c.413-.82.903-1.434 1.6-1.895a4.024 4.024 0 0 1 2.336-.64c.296 0 .58.026.825.077.13.038.207.038.284.077v4.097Zm1.652 11.396V8.657h4.104v8.323a6.495 6.495 0 0 1 2.064-1.767 6.523 6.523 0 0 1 4.216-.512 6.486 6.486 0 0 1 3.63 2.19 8.347 8.347 0 0 1 2.065 5.748 8.87 8.87 0 0 1-2.143 5.864 6.832 6.832 0 0 1-2.366 1.77c-.91.412-1.899.62-2.898.612a5.584 5.584 0 0 1-2.708-.617 5.534 5.534 0 0 1-2.067-1.841l-.129 2.01-3.768.038v-.026Zm7.936-3.227c.736 0 1.394-.205 2.013-.576a4.817 4.817 0 0 0 1.394-1.6c.335-.654.49-1.435.49-2.305 0-.858-.155-1.64-.49-2.292a4.81 4.81 0 0 0-1.394-1.6 3.829 3.829 0 0 0-4.026 0c-.58.409-1.032.947-1.406 1.6a5.1 5.1 0 0 0-.49 2.304 4.35 4.35 0 0 0 .43 2.195 4.39 4.39 0 0 0 1.466 1.698 3.764 3.764 0 0 0 2.013.576Zm9.691 3.24V14.994h3.781l.129 2.01a5.093 5.093 0 0 1 1.952-1.826 5.142 5.142 0 0 1 2.616-.594 5.318 5.318 0 0 1 2.939.825 5.26 5.26 0 0 1 1.99 2.3c.452.973.697 2.176.697 3.52v9.27h-4.116v-8.732c0-1.075-.245-1.92-.736-2.547-.49-.615-1.161-.948-2.013-.948-.619 0-1.161.128-1.639.41a3.202 3.202 0 0 0-1.109 1.19 3.43 3.43 0 0 0-.413 1.729v8.86h-4.078Zm16.156 0V8.643h4.116v8.323a6.016 6.016 0 0 1 2.119-1.774 6.061 6.061 0 0 1 2.694-.646 6.516 6.516 0 0 1 2.818.595 6.469 6.469 0 0 1 2.28 1.748 8.372 8.372 0 0 1 2.051 5.736 8.852 8.852 0 0 1-2.142 5.864 6.832 6.832 0 0 1-2.366 1.77 6.881 6.881 0 0 1-2.899.612 5.582 5.582 0 0 1-2.707-.617 5.532 5.532 0 0 1-2.067-1.841l-.116 2.01-3.781.038Zm7.975-3.24c.748 0 1.406-.205 2.013-.576.58-.41 1.032-.948 1.406-1.6.323-.654.491-1.435.491-2.305a4.358 4.358 0 0 0-.431-2.195 4.396 4.396 0 0 0-1.466-1.698 3.83 3.83 0 0 0-4.026 0 4.812 4.812 0 0 0-1.394 1.6 4.616 4.616 0 0 0-.49 2.305 4.347 4.347 0 0 0 .43 2.195 4.398 4.398 0 0 0 1.466 1.698c.607.371 1.226.576 2.001.576Z"/>
</svg>
