<svg xmlns="http://www.w3.org/2000/svg" width="8" height="14" fill="none" viewBox="0 0 8 14"><path fill="#000B33" d="M7.28649 0.35229L5.60774 0.349609C3.72173 0.349609 2.5029 1.5939 2.5029 3.51977V4.98142H0.814993C0.669137 4.98142 0.551025 5.09908 0.551025 5.24422V7.36199C0.551025 7.50712 0.669272 7.62465 0.814993 7.62465H2.5029V12.9685C2.5029 13.1136 2.62101 13.2311 2.76687 13.2311H4.96911C5.11496 13.2311 5.23307 13.1135 5.23307 12.9685V7.62465H7.20663C7.35249 7.62465 7.4706 7.50712 7.4706 7.36199L7.4714 5.24422C7.4714 5.17453 7.44353 5.10779 7.3941 5.05848C7.34467 5.00916 7.27734 4.98142 7.2073 4.98142H5.23307V3.74236C5.23307 3.14682 5.3757 2.84449 6.15534 2.84449L7.28622 2.84409C7.43194 2.84409 7.55006 2.72642 7.55006 2.58142V0.614951C7.55006 0.470085 7.43208 0.352558 7.28649 0.35229Z"/></svg>