<svg xmlns="http://www.w3.org/2000/svg" width="118" height="36" fill="none" viewBox="0 0 118 36">
  <path fill="#F60" d="m87.317 34.002 9.72-10.764-9.72-10.767h10.255l4.814 5.23 4.635-5.23h9.898l-9.674 10.722 9.806 10.81h-10.297l-4.77-5.273-4.725 5.272h-9.942Z"/>
  <path fill="#F60" d="M87.317 7.645H76.31v4.827h11.008v7.273H76.31v6.677h11.008v7.58h-19.1V.085h19.1v7.56Z"/>
  <path fill="#652C8F" d="M60.163.085v13.88h-.09c-1.783-2.02-4.011-2.722-6.597-2.722-5.297 0-9.287 3.549-10.687 8.242-1.598-5.171-5.717-8.34-11.825-8.34-4.96 0-8.877 2.195-10.921 5.772v-4.445H9.79V7.646h11.19V.086H.65v33.917h9.14V19.745h9.11a13.331 13.331 0 0 0-.417 3.352c0 7.075 5.483 12.04 12.481 12.04 5.885 0 9.763-2.723 11.814-7.688h-7.832c-1.06 1.491-1.864 1.934-3.982 1.934-2.456 0-4.573-2.112-4.573-4.616h15.948c.692 5.62 5.133 10.466 11.227 10.466a7.838 7.838 0 0 0 6.508-3.427h.089v2.196h8.056V.085h-8.056ZM26.645 19.847c.508-2.155 2.203-3.563 4.32-3.563 2.329 0 3.938 1.365 4.36 3.563h-8.68Zm28.628 8.991c-2.97 0-4.815-2.727-4.815-5.575 0-3.045 1.605-5.972 4.815-5.972 3.329 0 4.655 2.927 4.655 5.972 0 2.887-1.406 5.575-4.655 5.575Z"/>
</svg>
