<svg xmlns="http://www.w3.org/2000/svg" width="122" height="41" fill="none" viewBox="0 0 122 41"><path fill="#EA4335" d="M52.109 21.687c0 5.662-4.495 9.834-10.01 9.834-5.516 0-10.01-4.172-10.01-9.834 0-5.702 4.494-9.835 10.01-9.835 5.515 0 10.01 4.133 10.01 9.835Zm-4.382 0c0-3.539-2.605-5.96-5.628-5.96-3.024 0-5.629 2.421-5.629 5.96 0 3.502 2.605 5.959 5.629 5.959 3.023 0 5.628-2.461 5.628-5.96Z"/><path fill="#FBBC05" d="M73.704 21.687c0 5.662-4.494 9.834-10.01 9.834s-10.01-4.172-10.01-9.834c0-5.698 4.494-9.835 10.01-9.835s10.01 4.133 10.01 9.835Zm-4.382 0c0-3.539-2.605-5.96-5.628-5.96s-5.628 2.421-5.628 5.96c0 3.502 2.605 5.959 5.628 5.959s5.628-2.461 5.628-5.96Z"/><path fill="#4285F4" d="M94.4 12.447v17.655c0 7.262-4.346 10.229-9.484 10.229-4.837 0-7.748-3.188-8.845-5.795l3.815-1.565c.68 1.6 2.344 3.49 5.025 3.49 3.29 0 5.327-2 5.327-5.765v-1.414h-.153c-.98 1.192-2.87 2.234-5.255 2.234-4.99 0-9.56-4.283-9.56-9.794 0-5.551 4.57-9.87 9.56-9.87 2.38 0 4.27 1.043 5.255 2.2h.153v-1.6H94.4v-.005Zm-3.852 9.275c0-3.463-2.343-5.994-5.326-5.994-3.024 0-5.556 2.531-5.556 5.994 0 3.427 2.532 5.924 5.556 5.924 2.983 0 5.327-2.497 5.327-5.924Z"/><path fill="#34A853" d="M101.26 2.098v28.82h-4.274V2.098h4.274Z"/><path fill="#EA4335" d="m117.916 24.924 3.402 2.234c-1.098 1.6-3.744 4.358-8.315 4.358-5.668 0-9.902-4.318-9.902-9.834 0-5.848 4.27-9.834 9.412-9.834 5.178 0 7.711 4.062 8.539 6.256l.454 1.118-13.339 5.444c1.021 1.973 2.609 2.98 4.836 2.98 2.232 0 3.78-1.082 4.913-2.723Zm-10.469-3.539 8.917-3.649c-.49-1.228-1.966-2.084-3.703-2.084-2.227 0-5.326 1.938-5.214 5.733Z"/><path fill="#4285F4" d="M15.91 19.128v-4.172h14.267c.139.727.211 1.588.211 2.519 0 3.13-.868 7-3.667 9.758-2.721 2.794-6.2 4.284-10.806 4.284-8.54 0-15.72-6.855-15.72-15.27 0-8.416 7.18-15.27 15.72-15.27 4.724 0 8.089 1.826 10.617 4.207l-2.987 2.944c-1.813-1.676-4.27-2.98-7.635-2.98-6.235 0-11.112 4.953-11.112 11.099 0 6.145 4.877 11.097 11.112 11.097 4.045 0 6.348-1.6 7.824-3.055 1.197-1.179 1.984-2.864 2.294-5.165l-10.118.005Z"/></svg>