<svg xmlns="http://www.w3.org/2000/svg" width="124" height="35" fill="none" viewBox="0 0 124 35">
  <path fill="#33475B" d="M13.917 5.79v9.862H4.931V5.79H.665v23.542H4.93V19.79h8.986v9.542h4.266V5.79h-4.266Zm17.92 15.932a3.57 3.57 0 0 1-1.033 2.515 3.515 3.515 0 0 1-2.496 1.042 3.515 3.515 0 0 1-2.496-1.042 3.572 3.572 0 0 1-1.033-2.515V11.638h-4.047v10.084a7.66 7.66 0 0 0 2.217 5.394 7.539 7.539 0 0 0 5.352 2.235 7.538 7.538 0 0 0 5.352-2.235 7.66 7.66 0 0 0 2.217-5.394V11.638h-4.032v10.084Zm29.983-9.045c0-2.067 1.357-2.722 2.843-2.722 1.198 0 2.78.918 3.815 2.033l2.65-3.148c-1.323-1.803-4.007-3.05-6.204-3.05-4.39 0-7.564 2.591-7.564 6.887 0 7.97 9.665 5.442 9.665 9.902 0 1.376-1.325 2.592-2.843 2.592-2.393 0-3.169-1.18-4.268-2.427l-2.941 3.082c1.881 2.328 4.201 3.51 6.981 3.51 4.17 0 7.525-2.623 7.525-6.723 0-8.849-9.665-6.1-9.665-9.936m59.8 12.893c-2.392 0-3.071-1.042-3.071-2.639v-7.069h3.717v-3.581h-3.717V7.555l-4.103 1.856V23.81c0 3.682 2.521 5.539 5.978 5.539a8.221 8.221 0 0 0 1.618-.131l1.001-3.715c-.451.032-.97.064-1.423.064M47.24 11.757c-2.004 0-3.403.585-4.755 1.923V5.931h-4.053v14.363c0 5.377 3.856 9.06 8.19 9.06 4.807 0 9.036-3.749 9.036-8.797 0-4.985-3.892-8.798-8.418-8.798v-.002Zm-.025 13.486c-.91 0-1.798-.272-2.555-.781a4.626 4.626 0 0 1-1.693-2.08 4.668 4.668 0 0 1 .997-5.052 4.587 4.587 0 0 1 2.354-1.268 4.565 4.565 0 0 1 2.657.263 4.61 4.61 0 0 1 2.064 1.707 4.661 4.661 0 0 1-.572 5.853 4.58 4.58 0 0 1-3.252 1.358Zm44.035-4.901c0-5.056-4.221-8.796-9.037-8.796-4.333 0-8.19 3.683-8.19 9.06v14.37h4.053v-7.76c1.35 1.337 2.751 1.924 4.754 1.924 4.525 0 8.417-3.81 8.417-8.798h.002Zm-3.839-.05c0 .916-.27 1.813-.775 2.575a4.607 4.607 0 0 1-2.063 1.707 4.57 4.57 0 0 1-2.657.264 4.587 4.587 0 0 1-2.355-1.269 4.647 4.647 0 0 1-1.258-2.373 4.67 4.67 0 0 1 .261-2.678 4.628 4.628 0 0 1 1.694-2.08 4.573 4.573 0 0 1 5.806.576 4.654 4.654 0 0 1 1.347 3.278Z"/>
  <path fill="#FF7A59" d="M104.342 11.348V7.243a3.144 3.144 0 0 0 1.314-1.16c.32-.504.492-1.09.494-1.688V4.3c0-.838-.33-1.642-.918-2.235a3.122 3.122 0 0 0-2.217-.925h-.094c-.832 0-1.629.333-2.217.925a3.173 3.173 0 0 0-.918 2.235v.095a3.17 3.17 0 0 0 .494 1.688c.32.505.775.907 1.314 1.16v4.105a8.845 8.845 0 0 0-4.223 1.873L86.205 4.454c.08-.29.121-.587.126-.887a3.581 3.581 0 0 0-.593-1.98A3.54 3.54 0 0 0 84.156.273a3.507 3.507 0 0 0-3.851.766 3.586 3.586 0 0 0-.771 3.88 3.555 3.555 0 0 0 1.299 1.6c.58.392 1.263.601 1.962.602a3.474 3.474 0 0 0 1.739-.476l10.997 8.623a9.03 9.03 0 0 0 .136 10.113l-3.345 3.372a2.852 2.852 0 0 0-.836-.137c-.574 0-1.134.172-1.611.493a2.92 2.92 0 0 0-1.068 1.313 2.946 2.946 0 0 0 .63 3.186 2.88 2.88 0 0 0 3.16.634c.53-.221.984-.596 1.303-1.076a2.94 2.94 0 0 0 .49-1.624 2.903 2.903 0 0 0-.136-.843l3.308-3.335a8.889 8.889 0 0 0 3.668 1.686 8.853 8.853 0 0 0 4.03-.113 8.898 8.898 0 0 0 3.569-1.89 8.998 8.998 0 0 0 2.38-3.28 9.052 9.052 0 0 0-.413-7.906 8.955 8.955 0 0 0-2.707-3.011 8.88 8.88 0 0 0-3.746-1.502Zm-1.371 13.496c-.905 0-1.79-.272-2.542-.78a4.607 4.607 0 0 1-1.684-2.07 4.649 4.649 0 0 1-.26-2.666 4.625 4.625 0 0 1 1.254-2.361 4.546 4.546 0 0 1 4.988-1 4.59 4.59 0 0 1 2.054 1.699 4.637 4.637 0 0 1-.569 5.825 4.56 4.56 0 0 1-3.237 1.351"/>
</svg>
