<svg xmlns="http://www.w3.org/2000/svg" width="13" height="12" fill="none" viewBox="0 0 13 12"><path fill="#000B33" d="M12.0378 11.7622V11.7618H12.0406V7.62845C12.0406 5.6064 11.6031 4.04877 9.22745 4.04877C8.08539 4.04877 7.31898 4.67238 7.0061 5.2636H6.97306V4.23754H4.72057V11.7618H7.06603V8.03605C7.06603 7.05508 7.25291 6.10651 8.47378 6.10651C9.67672 6.10651 9.69465 7.22601 9.69465 8.09898V11.7622H12.0378Z"/><path fill="#000B33" d="M0.901039 4.25122H3.24934V11.7755H0.901039V4.25122Z"/><path fill="#000B33" d="M2.08141 0.504761C1.33058 0.504761 0.721321 1.111 0.721321 1.85812C0.721321 2.60524 1.33058 3.22416 2.08141 3.22416C2.83224 3.22416 3.4415 2.60524 3.4415 1.85812C3.44102 1.111 2.83177 0.504761 2.08141 0.504761V0.504761Z"/></svg>