<svg width="104" height="31" viewBox="0 0 104 31" fill="none" xmlns="http://www.w3.org/2000/svg">
<circle cx="15.0351" cy="15.0351" r="15" transform="rotate(-0.134228 15.0351 15.0351)" fill="#FD4C5C"/>
<path d="M13.924 6.34225H16.252L22.96 23.0703H19.576L18.364 19.7943H11.8L10.588 23.0703H7.192L13.924 6.34225ZM17.344 17.0223L15.1 10.9263L12.832 17.0223H17.344Z" fill="white"/>
<path d="M37.2303 10.9983C38.2543 10.9983 39.1463 11.2663 39.9063 11.8023C40.6743 12.3303 41.2623 13.0623 41.6703 13.9983C42.0783 14.9343 42.2823 15.9903 42.2823 17.1663C42.2823 18.4223 42.0583 19.5143 41.6103 20.4423C41.1623 21.3703 40.5543 22.0823 39.7863 22.5783C39.0183 23.0663 38.1663 23.3103 37.2303 23.3103C36.5263 23.3103 35.8783 23.1583 35.2863 22.8543C34.6943 22.5503 34.2143 22.0983 33.8463 21.4983V27.9663H30.8823V11.2383H33.8463V12.7983C34.5823 11.5983 35.7103 10.9983 37.2303 10.9983ZM33.5823 17.1663C33.5823 17.8463 33.6983 18.4463 33.9303 18.9663C34.1623 19.4783 34.4903 19.8743 34.9143 20.1543C35.3463 20.4343 35.8503 20.5743 36.4263 20.5743C37.0023 20.5743 37.5063 20.4343 37.9383 20.1543C38.3703 19.8743 38.7023 19.4783 38.9343 18.9663C39.1743 18.4543 39.2943 17.8543 39.2943 17.1663C39.2943 16.4783 39.1743 15.8743 38.9343 15.3543C38.7023 14.8343 38.3703 14.4343 37.9383 14.1543C37.5063 13.8743 37.0023 13.7343 36.4263 13.7343C35.8503 13.7343 35.3463 13.8783 34.9143 14.1663C34.4903 14.4463 34.1623 14.8463 33.9303 15.3663C33.6983 15.8783 33.5823 16.4783 33.5823 17.1663ZM51.0818 10.9983C52.1058 10.9983 52.9978 11.2663 53.7578 11.8023C54.5258 12.3303 55.1138 13.0623 55.5218 13.9983C55.9298 14.9343 56.1338 15.9903 56.1338 17.1663C56.1338 18.4223 55.9098 19.5143 55.4618 20.4423C55.0138 21.3703 54.4058 22.0823 53.6378 22.5783C52.8698 23.0663 52.0178 23.3103 51.0818 23.3103C50.3778 23.3103 49.7298 23.1583 49.1378 22.8543C48.5458 22.5503 48.0658 22.0983 47.6978 21.4983V27.9663H44.7338V11.2383H47.6978V12.7983C48.4338 11.5983 49.5618 10.9983 51.0818 10.9983ZM47.4338 17.1663C47.4338 17.8463 47.5498 18.4463 47.7818 18.9663C48.0138 19.4783 48.3418 19.8743 48.7658 20.1543C49.1978 20.4343 49.7018 20.5743 50.2778 20.5743C50.8538 20.5743 51.3578 20.4343 51.7898 20.1543C52.2218 19.8743 52.5538 19.4783 52.7858 18.9663C53.0258 18.4543 53.1458 17.8543 53.1458 17.1663C53.1458 16.4783 53.0258 15.8743 52.7858 15.3543C52.5538 14.8343 52.2218 14.4343 51.7898 14.1543C51.3578 13.8743 50.8538 13.7343 50.2778 13.7343C49.7018 13.7343 49.1978 13.8783 48.7658 14.1663C48.3418 14.4463 48.0138 14.8463 47.7818 15.3663C47.5498 15.8783 47.4338 16.4783 47.4338 17.1663ZM58.5734 11.2383H61.5734V12.7743C61.9574 12.1343 62.4374 11.6783 63.0134 11.4063C63.5974 11.1343 64.2134 10.9983 64.8614 10.9983C65.5654 10.9983 66.2094 11.1383 66.7934 11.4183C67.3774 11.6983 67.8574 12.1503 68.2334 12.7743C68.6734 12.1503 69.1894 11.6983 69.7814 11.4183C70.3814 11.1383 71.0254 10.9983 71.7134 10.9983C72.6814 10.9983 73.4854 11.2143 74.1254 11.6463C74.7654 12.0703 75.2374 12.6343 75.5414 13.3383C75.8454 14.0343 75.9974 14.7903 75.9974 15.6063V23.0703H73.0214V16.3383C73.0214 14.5063 72.3534 13.5903 71.0174 13.5903C69.5294 13.5903 68.7854 14.7543 68.7854 17.0823V23.0703H65.8094V16.2663C65.8094 15.3863 65.6414 14.7223 65.3054 14.2743C64.9774 13.8183 64.5014 13.5903 63.8774 13.5903C62.3414 13.5903 61.5734 14.7543 61.5734 17.0823V23.0703H58.5734V11.2383ZM86.1919 21.6663C85.4399 22.7623 84.3119 23.3103 82.8079 23.3103C81.9439 23.3103 81.1679 23.1503 80.4799 22.8303C79.7999 22.5023 79.2639 22.0423 78.8719 21.4503C78.4879 20.8583 78.2959 20.1783 78.2959 19.4103C78.2959 18.7543 78.4319 18.1823 78.7039 17.6943C78.9759 17.1983 79.3559 16.8103 79.8439 16.5303C80.5799 16.0983 81.5439 15.8823 82.7359 15.8823H86.1439V15.5943C86.1439 14.9703 85.9359 14.4823 85.5199 14.1303C85.1039 13.7703 84.5039 13.5903 83.7199 13.5903C83.1679 13.5903 82.6399 13.7023 82.1359 13.9263C81.6399 14.1423 81.1399 14.5143 80.6359 15.0423L78.4879 13.2303C79.1679 12.4783 79.9799 11.9183 80.9239 11.5503C81.8679 11.1823 82.8719 10.9983 83.9359 10.9983C85.0159 10.9983 85.9439 11.1823 86.7199 11.5503C87.4959 11.9183 88.0879 12.4503 88.4959 13.1463C88.9119 13.8343 89.1199 14.6503 89.1199 15.5943V23.0703H86.3839L86.1919 21.6663ZM81.2839 19.4223C81.2839 19.8703 81.4599 20.2303 81.8119 20.5023C82.1639 20.7663 82.6399 20.8983 83.2399 20.8983C83.7679 20.8983 84.2519 20.7823 84.6919 20.5503C85.1399 20.3183 85.4919 19.9983 85.7479 19.5903C86.0119 19.1823 86.1439 18.7223 86.1439 18.2103V18.1023H83.1679C82.5519 18.1023 82.0879 18.2103 81.7759 18.4263C81.4479 18.6583 81.2839 18.9903 81.2839 19.4223ZM94.9495 17.1063L90.9175 11.2383H94.4455L96.9415 15.1503L99.4495 11.2383H102.966L98.8855 17.1063L102.966 23.0703H99.4255L96.9415 19.0863L94.4095 23.0703H90.9175L94.9495 17.1063Z" fill="#000B33"/>
</svg>
