<svg xmlns="http://www.w3.org/2000/svg" width="109" height="31" fill="none" viewBox="0 0 109 31"><circle cx="15.537" cy="15.035" r="15" fill="#FD4C5C" transform="rotate(-0.134228 15.5371 15.0351)"/><path fill="#fff" d="M19.958 23.0703H23.222L16.55 6.34231H14.294L7.59795 23.0703H10.862L12.134 19.6143H18.686L19.958 23.0703ZM13.166 16.8543L15.422 10.7583L17.678 16.8543H13.166ZM42.9861 10.9983C41.7141 10.9983 40.3941 11.4063 39.5781 12.4143V11.2383H36.6981V27.9663H39.5781V21.8703C40.3221 22.7583 41.6421 23.3103 42.9861 23.3103C45.8901 23.3103 47.9781 21.0303 47.9781 17.1663C47.9781 13.6143 46.2021 10.9983 42.9861 10.9983ZM42.2661 20.7903C40.2021 20.7903 39.3141 19.2063 39.3141 17.1423C39.3141 15.0303 40.2021 13.5183 42.2901 13.5183C44.2101 13.5183 45.0981 14.8143 45.0981 17.1423C45.0981 19.4463 44.1861 20.7903 42.2661 20.7903ZM56.744 10.9983C55.472 10.9983 54.152 11.4063 53.336 12.4143V11.2383H50.456V27.9663H53.336V21.8703C54.08 22.7583 55.4 23.3103 56.744 23.3103C59.648 23.3103 61.736 21.0303 61.736 17.1663C61.736 13.6143 59.96 10.9983 56.744 10.9983ZM56.024 20.7903C53.96 20.7903 53.072 19.2063 53.072 17.1423C53.072 15.0303 53.96 13.5183 56.048 13.5183C57.968 13.5183 58.856 14.8143 58.856 17.1423C58.856 19.4463 57.944 20.7903 56.024 20.7903ZM77.4138 10.9983C75.8778 10.9983 74.5098 11.5503 73.5978 13.3263C72.8778 11.5023 71.4378 10.9983 70.1418 10.9983C68.9658 10.9983 67.7418 11.4063 66.9738 12.7263V11.2383H64.1898L64.2138 23.0703H67.0938V18.5583C67.0938 16.1823 67.0218 13.5183 69.4458 13.5183C71.3178 13.5183 71.4378 15.4623 71.4378 16.3983V23.0703H74.3178V18.5583C74.3178 16.1823 74.2218 13.5183 76.6458 13.5183C78.5418 13.5183 78.6618 15.4623 78.6618 16.3983V23.0703H81.5418V15.5343C81.5418 13.1583 80.2698 10.9983 77.4138 10.9983ZM89.1878 10.9983C87.0278 10.9983 85.2758 11.8383 83.8598 13.5423L85.9478 15.2943C86.8118 14.1423 87.9398 13.5183 89.1398 13.5183C90.5078 13.5183 91.3718 14.3103 91.3718 15.6063V15.9423H88.4198C87.0758 15.9423 86.0678 16.1103 85.2758 16.4703C84.1238 16.9983 83.4998 18.0543 83.4998 19.4463C83.4998 21.7023 85.2758 23.3103 87.7718 23.3103C89.3318 23.3103 90.6758 22.6383 91.3718 21.5343L91.6118 23.0703H94.2518V15.6063C94.2518 12.7503 92.3078 10.9983 89.1878 10.9983ZM88.2278 20.8623C87.0758 20.8623 86.3798 20.3343 86.3798 19.4943C86.3798 19.0623 86.5478 18.7263 86.8598 18.5103C87.2438 18.2223 87.8198 18.1023 88.8038 18.1023H91.3718C91.3718 19.6383 89.9558 20.8623 88.2278 20.8623ZM95.6755 23.0703H99.2035L101.652 19.0863L104.1 23.0703H107.628L103.548 17.1183L107.628 11.2383H104.1L101.652 15.1503L99.2035 11.2383H95.6755L99.7315 17.1183L95.6755 23.0703Z"/></svg>