<svg xmlns="http://www.w3.org/2000/svg" width="178" height="39" fill="none" viewBox="0 0 178 39"><path fill="#737373" d="m62.735 22.147-1.059 2.995h-.088a21.22 21.22 0 0 0-1.03-2.936l-5.68-14.24h-5.56v22.696h3.678V16.656c0-.88 0-1.879-.03-3.112-.03-.617-.088-1.086-.118-1.439h.089c.176.881.382 1.527.53 1.938l6.826 16.56h2.59l6.767-16.707c.148-.381.295-1.145.442-1.79h.088a211.675 211.675 0 0 0-.176 4.08v14.388h3.913V7.906h-5.355l-5.827 14.241Zm14.89-7.84h3.825v16.267h-3.825V14.307Zm1.942-6.87c-.647 0-1.177.235-1.618.646-.442.41-.677.94-.677 1.585 0 .617.235 1.145.676 1.556.442.411.972.617 1.619.617a2.35 2.35 0 0 0 1.618-.617c.442-.41.677-.94.677-1.556 0-.616-.235-1.145-.677-1.585-.382-.411-.941-.646-1.618-.646Zm15.449 6.724a10.694 10.694 0 0 0-2.149-.235c-1.736 0-3.325.381-4.649 1.145-1.324.763-2.383 1.82-3.06 3.142-.706 1.35-1.06 2.906-1.06 4.697 0 1.557.354 2.937 1.03 4.2.677 1.233 1.619 2.23 2.884 2.906 1.207.676 2.619 1.028 4.208 1.028 1.824 0 3.384-.382 4.62-1.087l.03-.029v-3.523l-.148.117a6.581 6.581 0 0 1-1.854.969c-.676.235-1.294.352-1.824.352-1.53 0-2.737-.44-3.59-1.409-.883-.94-1.324-2.232-1.324-3.847 0-1.673.441-2.994 1.353-3.963.913-.97 2.12-1.468 3.59-1.468 1.236 0 2.502.41 3.65 1.233l.146.117v-3.729l-.03-.03c-.5-.205-1.058-.44-1.823-.586Zm12.623-.118a4.04 4.04 0 0 0-2.589.91c-.648.529-1.089 1.292-1.472 2.203h-.029v-2.849h-3.825v16.267h3.825v-8.31c0-1.409.294-2.583.942-3.435.647-.88 1.471-1.321 2.471-1.321.353 0 .707.088 1.148.147.412.117.706.235.912.381l.147.118v-3.817l-.088-.03c-.265-.176-.795-.264-1.442-.264Zm10.417-.088c-2.678 0-4.826.793-6.327 2.349-1.53 1.556-2.266 3.7-2.266 6.401 0 2.525.766 4.58 2.237 6.078 1.471 1.468 3.472 2.232 5.973 2.232 2.619 0 4.708-.793 6.209-2.379 1.53-1.585 2.266-3.7 2.266-6.313 0-2.584-.706-4.639-2.148-6.136-1.383-1.498-3.414-2.232-5.944-2.232Zm3.06 12.508c-.706.91-1.824 1.351-3.207 1.351-1.383 0-2.501-.44-3.296-1.41-.794-.91-1.177-2.23-1.177-3.905 0-1.732.412-3.053 1.177-3.993.795-.94 1.883-1.41 3.266-1.41 1.354 0 2.413.441 3.178 1.352.765.91 1.177 2.231 1.177 3.963-.059 1.762-.382 3.142-1.118 4.052Zm13.565-5.402c-1.206-.5-1.971-.881-2.324-1.204-.295-.294-.442-.705-.442-1.233 0-.44.177-.881.618-1.175.442-.294.942-.44 1.678-.44.647 0 1.324.117 1.971.293.647.177 1.236.44 1.707.793l.147.118V14.63l-.088-.029a10.655 10.655 0 0 0-1.736-.5 11.828 11.828 0 0 0-1.884-.175c-1.824 0-3.325.44-4.502 1.41-1.177.91-1.736 2.143-1.736 3.581 0 .764.118 1.439.383 1.997a4.436 4.436 0 0 0 1.177 1.527c.529.41 1.294.88 2.354 1.321.882.382 1.559.675 1.971.91.412.235.677.5.883.705.147.235.235.528.235.91 0 1.087-.824 1.615-2.501 1.615-.647 0-1.324-.117-2.119-.382a8.203 8.203 0 0 1-2.148-1.086l-.147-.117v3.729l.089.029c.559.264 1.235.44 2.059.646.824.147 1.56.264 2.207.264 1.972 0 3.59-.44 4.738-1.41 1.177-.939 1.795-2.143 1.795-3.699 0-1.086-.294-2.055-.942-2.79a11.92 11.92 0 0 0-3.443-2.025Zm14.478-7.106c-2.678 0-4.826.793-6.327 2.349-1.5 1.556-2.265 3.7-2.265 6.401 0 2.525.765 4.58 2.236 6.078 1.471 1.468 3.472 2.232 5.973 2.232 2.619 0 4.708-.793 6.209-2.379 1.53-1.585 2.266-3.7 2.266-6.313 0-2.584-.706-4.639-2.148-6.136-1.383-1.498-3.414-2.232-5.944-2.232Zm3.031 12.508c-.707.91-1.825 1.351-3.208 1.351-1.412 0-2.501-.44-3.295-1.41-.795-.91-1.177-2.23-1.177-3.905 0-1.732.412-3.053 1.177-3.993.794-.94 1.883-1.41 3.266-1.41 1.324 0 2.413.441 3.178 1.352.765.91 1.177 2.231 1.177 3.963 0 1.762-.383 3.142-1.118 4.052Zm25.512-9.014v-3.142h-3.855V9.492l-.118.03-3.648 1.086-.089.03v3.67h-5.767v-2.056c0-.94.235-1.674.647-2.143.412-.47 1.03-.705 1.795-.705.53 0 1.089.117 1.707.382l.147.088V6.556l-.088-.03c-.53-.176-1.236-.293-2.148-.293a6.908 6.908 0 0 0-3.061.704 5.098 5.098 0 0 0-2.089 2.085c-.5.881-.765 1.88-.765 3.024v2.261h-2.678v3.113h2.678v13.154h3.855V17.449h5.767v8.368c0 3.436 1.619 5.168 4.856 5.168.529 0 1.088-.088 1.618-.176.559-.117.971-.264 1.206-.382l.03-.03v-3.14l-.147.117a2.5 2.5 0 0 1-.795.352 2.697 2.697 0 0 1-.765.117c-.765 0-1.295-.176-1.677-.616-.353-.411-.53-1.087-.53-2.085v-7.693h3.914Z"/><path fill="#F25022" d="M0 .33h18.038v18H0v-18Z"/><path fill="#7FBA00" d="M19.92.33h18.04v18H19.92v-18Z"/><path fill="#00A4EF" d="M0 20.209h18.038v17.999H0V20.209Z"/><path fill="#FFB900" d="M19.92 20.209h18.04v17.999H19.92V20.209Z"/></svg>