<svg xmlns="http://www.w3.org/2000/svg" width="20" height="20" fill="none" viewBox="0 0 20 20"><path fill="#377CFD" d="M14.076 0h3.385a2.55 2.55 0 0 1 2.54 2.56v3.415a2.549 2.549 0 0 1-2.54 2.56h-3.385a2.549 2.549 0 0 1-2.539-2.56V2.56A2.55 2.55 0 0 1 14.077 0" opacity=".4"/><path fill="#377CFD" d="M5.924 11.466a2.55 2.55 0 0 1 2.539 2.56v3.414A2.55 2.55 0 0 1 5.924 20H2.54A2.551 2.551 0 0 1 0 17.44v-3.415a2.549 2.549 0 0 1 2.539-2.56h3.385v.001Zm11.537 0A2.55 2.55 0 0 1 20 14.026v3.414A2.55 2.55 0 0 1 17.461 20h-3.385a2.55 2.55 0 0 1-2.539-2.56v-3.415a2.55 2.55 0 0 1 2.539-2.56h3.385v.001ZM5.924 0a2.549 2.549 0 0 1 2.539 2.56v3.415a2.55 2.55 0 0 1-2.539 2.56H2.54A2.549 2.549 0 0 1 0 5.974V2.56A2.549 2.549 0 0 1 2.539 0h3.385Z"/></svg>