<svg width="16" height="17" viewBox="0 0 16 17" fill="none" xmlns="http://www.w3.org/2000/svg">
<path d="M14.7161 10.5054C13.7365 10.5054 12.7747 10.3521 11.8633 10.0508C11.4166 9.89844 10.8676 10.0382 10.595 10.3183L8.79598 11.6768C6.70961 10.5627 5.42444 9.27758 4.32595 7.20624L5.64407 5.45354C5.98653 5.11143 6.10936 4.6117 5.96219 4.14281C5.65969 3.22628 5.50603 2.26461 5.50603 1.28431C5.50607 0.576134 4.93011 0 4.2222 0H1.28387C0.575957 0 0 0.576134 0 1.28427C0 9.40133 6.60157 16.0049 14.7161 16.0049C15.424 16.0049 16 15.4288 16 14.7206V11.7896C16 11.0815 15.424 10.5054 14.7161 10.5054Z" fill="#FD4C5C"/>
</svg>
