<svg xmlns="http://www.w3.org/2000/svg" width="20" height="20" fill="none" viewBox="0 0 20 20"><path fill="#00BB98" d="M14.676 0H5.333C1.93 0 0 1.929 0 5.333v9.334C0 18.07 1.929 20 5.333 20h9.343C18.08 20 20 18.071 20 14.667V5.333C20 1.93 18.08 0 14.676 0Z" opacity=".4"/><path fill="#00BB98" d="M5.369 7.369a.833.833 0 0 0-.827.836v6.87a.831.831 0 0 0 1.662 0v-6.87a.835.835 0 0 0-.835-.836Zm4.666-3.28a.833.833 0 0 0-.826.836v10.15a.831.831 0 0 0 1.662 0V4.925a.835.835 0 0 0-.836-.835v-.001Zm4.605 6.908a.834.834 0 0 0-.836.835v3.245a.831.831 0 0 0 1.663 0V11.83a.833.833 0 0 0-.827-.835"/></svg>