<svg xmlns="http://www.w3.org/2000/svg" width="54" height="40" fill="none" viewBox="0 0 54 40"><path fill="#FD4C5C" d="M41.0005 24.0481C41.5904 24.0481 42.1565 23.9573 42.7199 23.8744C42.5374 24.4943 42.3496 25.1249 42.048 25.6914C41.7465 26.5144 41.2756 27.2278 40.8074 27.9466C40.4159 28.7241 39.7256 29.2505 39.2177 29.9158C38.686 30.5625 37.9612 30.9927 37.3872 31.5297C36.8238 32.0909 36.0858 32.3714 35.4985 32.7669C34.8849 33.1222 34.3505 33.515 33.7792 33.7021L32.3534 34.2953L31.0996 34.8216L32.3825 40L33.9617 39.6152C34.4669 39.487 35.0832 39.3373 35.7842 39.1583C36.5011 39.0247 37.2655 38.6587 38.1173 38.3246C38.9584 37.9452 39.9319 37.6887 40.8365 37.0795C41.7465 36.497 42.7966 36.0107 43.7224 35.2305C44.6192 34.4262 45.701 33.7288 46.4999 32.7054C47.3728 31.7488 48.2351 30.7442 48.9044 29.6005C49.6794 28.5104 50.2058 27.3133 50.7613 26.1296C51.2639 24.9459 51.6686 23.7355 51.9992 22.5598C52.6261 20.2031 52.9065 17.9639 53.015 16.0481C53.1049 14.1296 53.052 12.5344 52.9409 11.3801C52.9012 10.835 52.8272 10.3059 52.7743 9.93988L52.7081 9.49099L52.6394 9.50702C52.1689 7.28703 51.0858 5.24695 49.5155 3.62277C47.9451 1.99859 45.9517 0.856674 43.7657 0.329128C41.5797 -0.198414 39.2906 -0.0900345 37.163 0.641731C35.0355 1.3735 33.1565 2.69875 31.7434 4.46418C30.3303 6.22961 29.4409 8.36308 29.1781 10.6178C28.9152 12.8725 29.2897 15.1563 30.2581 17.205C31.2265 19.2537 32.7493 20.9837 34.6504 22.1947C36.5514 23.4057 38.753 24.0482 41.0005 24.0481ZM11.9035 24.0481C12.4933 24.0481 13.0594 23.9573 13.6228 23.8744C13.4403 24.4943 13.2525 25.1249 12.951 25.6914C12.6494 26.5144 12.1786 27.2278 11.7104 27.9466C11.3189 28.7241 10.6285 29.2505 10.1206 29.9158C9.58892 30.5625 8.86415 30.9927 8.29014 31.5297C7.72672 32.0909 6.9887 32.3714 6.40147 32.7669C5.78779 33.1222 5.25346 33.515 4.6821 33.7021L3.25635 34.2953L2.00253 34.8216L3.28544 40L4.86462 39.6152C5.36985 39.487 5.98618 39.3373 6.68715 39.1583C7.404 39.0247 8.16846 38.6587 9.02021 38.3246C9.85873 37.9426 10.8348 37.6887 11.7395 37.0768C12.6494 36.4943 13.6995 36.008 14.6254 35.2278C15.5221 34.4235 16.604 33.7261 17.4028 32.7054C18.2757 31.7488 19.1381 30.7442 19.8073 29.6005C20.5823 28.5104 21.1087 27.3133 21.6642 26.1296C22.1668 24.9459 22.5715 23.7355 22.9022 22.5598C23.5291 20.2031 23.8095 17.9639 23.9179 16.0481C24.0078 14.1296 23.9549 12.5344 23.8438 11.3801C23.8042 10.835 23.7301 10.3059 23.6772 9.93988L23.6111 9.49099L23.5423 9.50702C23.0718 7.28703 21.9888 5.24695 20.4184 3.62277C18.8481 1.99859 16.8546 0.856674 14.6686 0.329128C12.4827 -0.198414 10.1935 -0.0900345 8.06595 0.641731C5.9384 1.3735 4.05941 2.69875 2.64635 4.46418C1.23328 6.22961 0.343872 8.36308 0.0810165 10.6178C-0.181839 12.8725 0.192596 15.1563 1.16101 17.205C2.12942 19.2537 3.65223 20.9837 5.55329 22.1947C7.45435 23.4057 9.65597 24.0482 11.9035 24.0481Z" opacity=".05"/></svg>