<svg xmlns="http://www.w3.org/2000/svg" width="20" height="20" fill="none" viewBox="0 0 20 20">
  <path fill="#FD4C5C" d="M8.153 3.557c.05.103.084.214.1.328l.278 4.14.138 2.08c.001.215.035.428.1.632.167.397.568.649 1.005.63l6.657-.434c.289-.005.567.103.774.3.173.163.284.378.32.608l.011.14c-.275 3.815-3.077 6.997-6.884 7.818-3.806.82-7.71-.914-9.591-4.263a8.214 8.214 0 0 1-.997-3.146 6.018 6.018 0 0 1-.063-.986c-.006-4.09 2.906-7.626 6.983-8.478.491-.077.972.183 1.169.63Z"/>
  <path fill="#FD4C5C" d="M10.87 0c4.56.118 8.392 3.397 9.13 7.813l-.007.033-.02.047.003.13a.8.8 0 0 1-.192.472.827.827 0 0 1-.462.272l-.11.015-7.68.498a.917.917 0 0 1-.7-.227.884.884 0 0 1-.289-.537l-.515-7.67a.122.122 0 0 1 0-.08.786.786 0 0 1 .258-.555c.16-.144.37-.22.584-.21Z" opacity=".4"/>
</svg>
