<svg width="14" height="12" viewBox="0 0 14 12" fill="none" xmlns="http://www.w3.org/2000/svg">
<path d="M14 1.83826C13.4816 2.06455 12.9291 2.21455 12.3532 2.28738C12.9457 1.93536 13.3979 1.3822 13.6105 0.71546C13.0581 1.0432 12.4481 1.27469 11.7981 1.40388C11.2736 0.848115 10.526 0.503906 9.7104 0.503906C8.12805 0.503906 6.85416 1.7819 6.85416 3.34861C6.85416 3.57404 6.87333 3.7908 6.92038 3.99715C4.54424 3.88183 2.4417 2.74863 1.02926 1.02239C0.782675 1.4481 0.638033 1.93536 0.638033 2.45991C0.638033 3.44485 1.14777 4.31795 1.90757 4.82342C1.44838 4.81475 0.997896 4.6821 0.61625 4.47315C0.61625 4.48182 0.61625 4.49309 0.61625 4.50436C0.61625 5.88639 1.60696 7.03434 2.90613 7.29878C2.67348 7.36207 2.41992 7.39242 2.15677 7.39242C1.97379 7.39242 1.78907 7.38201 1.61567 7.34386C1.98599 8.47013 3.03683 9.29814 4.28632 9.32502C3.31391 10.0819 2.07923 10.538 0.742594 10.538C0.508204 10.538 0.283399 10.5276 0.0585938 10.499C1.32465 11.3114 2.82509 11.7752 4.44317 11.7752C9.70256 11.7752 12.578 7.4401 12.578 3.68242C12.578 3.5567 12.5736 3.43532 12.5675 3.3148C13.1348 2.91423 13.6114 2.41396 14 1.83826Z" fill="#000B33"/>
</svg>
