<svg xmlns="http://www.w3.org/2000/svg" width="163" height="39" fill="none" viewBox="0 0 163 39">
  <path fill="#041E42" d="M58.544 13.68v2.147h.066c.773-1.15 2.055-2.503 4.897-2.503 2.211 0 3.908 1.126 4.635 2.826h.065c.621-.86 1.333-1.51 2.13-1.971.945-.546 1.995-.86 3.317-.86 2.994 0 5.645 1.947 5.645 6.858v9.313h-4.564v-8.662c0-2.489-.899-3.928-2.767-3.928-1.368 0-2.362.865-2.741 1.928-.131.366-.192.865-.192 1.282v9.385h-4.564v-9.019c0-2.113-.863-3.58-2.706-3.58-1.474 0-2.398 1.092-2.776 2.027-.162.4-.212.86-.212 1.292v9.275h-4.57V13.68h4.337Zm44.311 0v2.983h.126c.838-2.28 2.827-3.339 4.574-3.339.439 0 .681.033 1.035.1v4.141c-.419-.057-.808-.114-1.353-.114-1.979 0-3.358 1.083-3.706 2.778a5.52 5.52 0 0 0-.101 1.169v8.097h-4.685V13.68h4.11Zm12.096-5.238v4.977h3.958v4.027h-3.958v5.941c0 1.924.52 2.855 2.064 2.855.727 0 1.262-.086 1.727-.195l.061 3.338c-.621.219-1.944.456-3.287.456-1.58 0-2.898-.517-3.7-1.32-.919-.916-1.343-2.417-1.343-4.554V8.442h4.478ZM51.027 29.49h-4.543V8.442h4.543V29.49Zm-12.116-5.647c0 .29-.025.594-.11.855-.354 1.097-1.56 2.023-3.065 2.023-1.257 0-2.257-.67-2.257-2.09 0-2.17 2.544-2.773 5.437-2.759v1.971h-.005Zm4.539-3.785c0-3.585-1.626-6.734-7.124-6.734-2.822 0-5.063.746-6.285 1.41l.894 2.879c1.115-.665 2.898-1.212 4.584-1.212 2.791-.004 3.246 1.487 3.246 2.442v.227c-6.084-.009-9.925 1.971-9.925 6.008 0 2.465 1.953 4.773 5.356 4.773 2.095 0 3.842-.784 4.892-2.042h.1s.697 2.73 4.524 1.686c-.202-1.14-.267-2.351-.267-3.81v-5.627h.005ZM6.016 8.442c.47 2.227 1.802 8.696 1.802 8.696.56 2.66 1.075 5.447 1.464 7.65h.07c.38-2.34.975-4.559 1.611-7.304l2.247-9.042h4.972l2.1 9.275c.55 2.579.99 4.569 1.338 6.967h.066c.379-2.422.873-4.493 1.413-7.143l2.02-9.099h4.77l-5.91 21.048c-3.766.774-5.21-.65-5.725-2.911-.515-2.266-1.525-6.573-1.525-6.573-.52-2.36-.924-4.022-1.206-6.444h-.07c-.405 2.398-.829 4.079-1.455 6.44l-2.479 9.493c-3.846.722-5.18-.347-5.916-3.249-.636-2.483-4.604-17.8-4.604-17.8h5.018v-.004Zm85.156 15.401c0 .29-.025.594-.11.855-.354 1.097-1.56 2.023-3.065 2.023-1.257 0-2.257-.67-2.257-2.09 0-2.17 2.545-2.773 5.438-2.759v1.971h-.005Zm4.539-3.785c0-3.585-1.626-6.734-7.123-6.734-2.822 0-5.064.746-6.286 1.41l.894 2.879c1.116-.665 2.898-1.212 4.584-1.212 2.787-.004 3.246 1.487 3.246 2.442v.227c-6.078-.009-9.92 1.971-9.92 6.008 0 2.465 1.959 4.773 5.356 4.773 2.09 0 3.842-.784 4.887-2.042h.106s.697 2.73 4.524 1.686c-.202-1.14-.268-2.351-.268-3.81v-5.627Z"/>
  <path fill="#FFC124" d="M137.327 22.241c.448.769.418 1.627-.06 2.018l-8.263 5.708c-.861.491-2.149-.104-2.879-1.349-.734-1.25-.604-2.643.257-3.134l9.148-4.195c.574-.218 1.349.183 1.797.952Zm10.875 0c.452-.769 1.222-1.165 1.796-.957l9.154 4.195c.86.491.986 1.885.256 3.134-.734 1.245-2.028 1.835-2.883 1.35l-8.263-5.709c-.473-.386-.508-1.25-.06-2.013Zm-5.44 3.095c.9 0 1.64.456 1.741 1.056l.891 9.908c0 .982-1.163 1.785-2.627 1.785-1.46 0-2.627-.803-2.627-1.785l.886-9.908c.1-.6.84-1.056 1.736-1.056Zm5.5-11.297 8.263-5.713c.855-.491 2.149.1 2.883 1.349.73 1.25.604 2.643-.256 3.134l-9.154 4.2c-.574.209-1.349-.188-1.796-.957-.448-.768-.413-1.626.06-2.013Zm-12.732 2.97-9.148-4.2c-.856-.491-.986-1.884-.257-3.134.73-1.25 2.023-1.84 2.879-1.349l8.263 5.713c.478.382.508 1.245.06 2.013-.448.769-1.223 1.166-1.797.957Zm5.496-5.108-.886-9.908c0-.982 1.162-1.785 2.627-1.785 1.464 0 2.627.803 2.627 1.785l-.891 9.908c-.101.595-.841 1.057-1.741 1.057-.896 0-1.636-.462-1.736-1.057Zm20.617 18.027v-.248h.226c.075 0 .126.05.126.124a.121.121 0 0 1-.126.124h-.226Zm-.187.45c0 .026.02.05.051.05h.095c.025 0 .051-.024.051-.05v-.282h.156l.125.298c.01.02.026.034.046.034h.115a.049.049 0 0 0 .046-.069c-.046-.09-.091-.184-.136-.278a.275.275 0 0 0 .191-.277c0-.189-.156-.298-.312-.298h-.377c-.025 0-.051.025-.051.05v.823Zm-.407-.41c0-.402.332-.73.739-.73.408 0 .74.323.74.73a.732.732 0 0 1-.74.728.732.732 0 0 1-.739-.729Zm-.176 0c0 .495.407.902.915.902a.912.912 0 0 0 .916-.903.912.912 0 0 0-.916-.902.909.909 0 0 0-.915.902Z"/>
</svg>
